<svg width="21" height="18" viewBox="0 0 21 18" fill="none" xmlns="http://www.w3.org/2000/svg">
<path d="M19.1803 18L12.0946 11.7C11.5322 12.1 10.8855 12.4167 10.1544 12.65C9.42334 12.8833 8.64541 13 7.82061 13C5.77736 13 4.04809 12.3708 2.63281 11.1125C1.21753 9.85417 0.509888 8.31667 0.509888 6.5C0.509888 4.68333 1.21753 3.14583 2.63281 1.8875C4.04809 0.629167 5.77736 0 7.82061 0C9.86386 0 11.5931 0.629167 13.0084 1.8875C14.4237 3.14583 15.1313 4.68333 15.1313 6.5C15.1313 7.23333 15.0001 7.925 14.7377 8.575C14.4752 9.225 14.1191 9.8 13.6692 10.3L20.755 16.6L19.1803 18ZM7.82061 11C9.22652 11 10.4215 10.5625 11.4057 9.6875C12.3898 8.8125 12.8819 7.75 12.8819 6.5C12.8819 5.25 12.3898 4.1875 11.4057 3.3125C10.4215 2.4375 9.22652 2 7.82061 2C6.4147 2 5.21968 2.4375 4.23554 3.3125C3.25141 4.1875 2.75934 5.25 2.75934 6.5C2.75934 7.75 3.25141 8.8125 4.23554 9.6875C5.21968 10.5625 6.4147 11 7.82061 11Z" fill="#1D4FD7"/>
</svg>
